<svg width="322" height="52" viewBox="0 0 322 52" fill="none" xmlns="http://www.w3.org/2000/svg">
<path d="M36.3703 36.9261C39.8815 35.4076 41.8186 32.5053 42 28.7475C39.1812 35.069 33.546 34.8157 28.6646 36.6974C23.9919 38.5005 22.8299 41.4987 22.5358 42.9634L22.4393 43.1555C22.8018 41.3733 24.1376 37.3613 28.9265 35.1608C35.3309 32.2065 37.7965 27.3054 36.2526 22.044C35.6383 29.2491 30.1882 30.2905 26.0771 33.9577C23.7198 36.0535 22.7116 38.2605 22.3134 40.0712L22.301 37.4975C22.8152 34.9939 24.0618 32.056 26.7957 29.2928C33.6172 22.4301 34.5865 15.0323 30.3393 9.12376C32.7078 18.5393 27.2244 21.3733 23.6305 28.0264C23.1617 28.892 22.7742 29.741 22.4538 30.58C22.5303 29.1553 22.6412 27.6955 22.8019 26.1151C25.4943 14.4821 24.1869 3.43862 21.0016 0C17.8114 3.43862 16.5042 14.4821 19.2017 26.1151C19.3633 27.6955 19.4709 29.1553 19.5508 30.58C19.2311 29.741 18.8414 28.892 18.3757 28.0264C14.7732 21.3733 9.29451 18.5391 11.6638 9.12376C7.41492 15.0325 8.39155 22.4303 15.1998 29.2928C17.9397 32.0562 19.1856 34.9939 19.7004 37.4975L19.6919 40.0712C19.2953 38.2605 18.2811 36.0535 15.9278 33.9577C11.8156 30.2905 6.36537 29.2489 5.7438 22.044C4.20893 27.3054 6.67144 32.2065 13.0776 35.1608C17.861 37.3613 19.1953 41.3733 19.5673 43.1555L19.4651 42.9634C19.1714 41.4987 18.0085 38.5007 13.3431 36.6974C8.45849 34.8157 2.82718 35.069 0 28.7475C0.182153 32.5053 2.12306 35.4076 5.63422 36.9261C3.72524 38.3455 2.52964 40.0714 1.9097 42.652C0.977529 46.543 3.54998 50.7414 7.20284 51.7903C8.66006 52.2048 10.1759 52.0012 11.4812 51.211C12.7951 50.4205 14.1353 48.6036 14.5318 47.0632C14.8567 45.7941 14.6925 44.4697 14.074 43.3302C13.4572 42.1927 12.4575 41.3733 11.2537 41.0264C9.20271 40.4391 6.79372 42.2354 6.48166 44.461C6.26359 45.981 6.72459 47.6367 8.38139 48.6232C8.38139 48.6232 7.08328 46.6009 7.47897 44.828C7.62774 44.1539 8.05409 43.6038 8.62432 43.259C9.18946 42.9188 9.84768 42.8279 10.4823 43.0016C11.3074 43.2454 12.0048 43.8173 12.4386 44.6044C12.8664 45.3994 12.9826 46.3225 12.7512 47.2036C12.4573 48.3539 11.3298 49.7791 10.351 50.3738C9.37688 50.9611 8.23407 51.1178 7.15167 50.8038C5.74362 50.4076 4.57287 49.4457 3.84335 48.1148C3.12472 46.7714 3.2323 44.7153 3.73504 43.2687C4.39525 41.3865 5.31944 40.1343 7.0508 39.3327C8.7651 38.5444 10.519 38.4643 12.3171 38.9808C14.619 39.6399 16.55 41.1946 17.704 42.7495C19.1039 44.6472 20.914 47.9782 21.0015 50.5075V50.5258C21.0015 50.5216 21.0033 50.5178 21.0033 50.5159C21.0033 50.5178 21.0033 50.5218 21.0033 50.5258V50.5075C21.0876 47.9782 22.8979 44.6472 24.3007 42.7495C25.4519 41.1944 27.3812 39.6399 29.6842 38.9808C31.487 38.4643 33.2387 38.5444 34.9488 39.3327C36.6855 40.1345 37.6077 41.3867 38.2606 43.2687C38.7679 44.7151 38.884 46.7714 38.1527 48.1148C37.4288 49.4457 36.2606 50.4076 34.8523 50.8038C33.7672 51.1178 32.6273 50.9611 31.6487 50.3738C30.6722 49.7791 29.5467 48.3537 29.2504 47.2036C29.0251 46.3223 29.1352 45.3994 29.5614 44.6044C29.9922 43.8173 30.6938 43.2454 31.5219 43.0016C32.1547 42.8279 32.8147 42.9188 33.3835 43.259C33.9472 43.6038 34.3766 44.1539 34.5256 44.828C34.9222 46.6009 33.6184 48.6232 33.6184 48.6232C35.281 47.6367 35.7368 45.981 35.5211 44.461C35.2079 42.2354 32.7991 40.4391 30.7486 41.0264C29.5492 41.3733 28.5486 42.1927 27.9282 43.3302C27.3109 44.4697 27.1464 45.7941 27.4726 47.0632C27.8665 48.6037 29.213 50.4205 30.5157 51.211C31.8239 52.0011 33.3418 52.2048 34.7995 51.7903C38.4535 50.7416 41.0257 46.543 40.0921 42.652C39.4733 40.0714 38.2764 38.3455 36.3703 36.9261Z" fill="white"/>
<path d="M59.87 45L61.165 21.83H64.42L72.505 39.505L80.24 21.83H83.81L85.105 45H81.535L80.59 25.085H80.45L71.63 45H71.14L62.495 25.89H62.355L61.41 45H59.87ZM99.7585 45.42C97.8218 45.42 96.0602 44.9883 94.4735 44.125C92.8868 43.2383 91.6268 41.955 90.6935 40.275C89.7602 38.5717 89.2935 36.495 89.2935 34.045C89.2935 32.1317 89.5502 30.4633 90.0635 29.04C90.5768 27.6167 91.2652 26.4267 92.1285 25.47C93.0152 24.49 93.9952 23.7083 95.0685 23.125C96.1652 22.5183 97.2852 22.0867 98.4285 21.83C99.5952 21.55 100.715 21.41 101.789 21.41C103.749 21.41 105.522 21.8417 107.109 22.705C108.695 23.5683 109.955 24.84 110.889 26.52C111.822 28.2 112.289 30.265 112.289 32.715C112.289 34.6283 112.032 36.2967 111.519 37.72C111.005 39.1433 110.305 40.345 109.419 41.325C108.532 42.305 107.54 43.0983 106.444 43.705C105.37 44.3117 104.25 44.7433 103.084 45C101.94 45.28 100.832 45.42 99.7585 45.42ZM100.774 44.265C102.174 44.265 103.364 43.9267 104.344 43.25C105.347 42.5733 106.152 41.6983 106.759 40.625C107.389 39.5517 107.844 38.385 108.124 37.125C108.427 35.865 108.579 34.6633 108.579 33.52C108.579 32.0733 108.427 30.7083 108.124 29.425C107.844 28.1183 107.365 26.975 106.689 25.995C106.035 25.015 105.149 24.245 104.029 23.685C102.932 23.125 101.555 22.845 99.8985 22.845C98.3352 23.3817 97.0402 24.1983 96.0135 25.295C94.9868 26.3917 94.2285 27.6517 93.7385 29.075C93.2485 30.4983 93.0035 31.98 93.0035 33.52C93.0035 34.9433 93.1435 36.3083 93.4235 37.615C93.7268 38.8983 94.1818 40.0417 94.7885 41.045C95.3952 42.0483 96.1885 42.8417 97.1685 43.425C98.1718 43.985 99.3735 44.265 100.774 44.265ZM124.77 45.42C123.043 45.42 121.632 45.1867 120.535 44.72C119.438 44.23 118.575 43.6233 117.945 42.9C117.338 42.1533 116.907 41.3717 116.65 40.555C116.393 39.715 116.23 38.9333 116.16 38.21C116.113 37.4867 116.09 36.915 116.09 36.495V21.83H119.66V36.775C119.66 37.2183 119.672 37.755 119.695 38.385C119.742 38.9917 119.858 39.61 120.045 40.24C120.232 40.87 120.535 41.465 120.955 42.025C121.398 42.585 122.005 43.04 122.775 43.39C123.545 43.7167 124.537 43.88 125.75 43.88C127.757 43.88 129.343 43.3433 130.51 42.27C131.7 41.1967 132.295 39.4 132.295 36.88V21.83H133.835V36.04C133.835 36.6 133.8 37.2767 133.73 38.07C133.683 38.8633 133.52 39.6917 133.24 40.555C132.983 41.395 132.528 42.1883 131.875 42.935C131.245 43.6817 130.358 44.2883 129.215 44.755C128.072 45.1983 126.59 45.42 124.77 45.42ZM156.628 45.385L141.298 26.205H141.158V45H139.618V21.83H142.208L155.543 38.665H155.683V21.83H157.223V45.385H156.628ZM168.024 45V23.51C167.651 23.4167 167.278 23.3467 166.904 23.3C166.531 23.2533 166.111 23.23 165.644 23.23L160.919 24.315L160.709 21.83H178.734L178.559 24.315L173.799 23.23C173.333 23.23 172.913 23.2533 172.539 23.3C172.166 23.3467 171.793 23.4167 171.419 23.51V45H168.024ZM177.355 45L187.75 21.27H188.275L198.67 45H194.855L192.23 38.7H181.835L179.245 45H177.355ZM182.36 37.37H191.67L187.05 26.03L182.36 37.37ZM202.167 45V21.83H205.387V45H202.167ZM228.713 45.385L213.383 26.205H213.243V45H211.703V21.83H214.293L227.628 38.665H227.768V21.83H229.308V45.385H228.713ZM251.939 45.56L241.544 21.83H245.359L253.059 40.8L259.989 21.83H261.739L252.499 45.56H251.939ZM265.228 45V21.83H268.448V45H265.228ZM274.764 45V21.83H288.799L288.449 24.175L281.939 23.09C281.263 23.09 280.633 23.1483 280.049 23.265C279.466 23.3583 278.836 23.4983 278.159 23.685V32.19H285.929V33.52H278.159V43.74L289.009 42.655L288.659 45H274.764ZM300.473 45.525L291.618 21.83H295.433L301.593 40.8L305.513 29.11L302.783 21.83H306.598L312.758 40.8L319.128 21.83H320.878L312.198 45.525H311.638L306.283 31.175L301.033 45.525H300.473Z" fill="white"/>
</svg>
